<svg id="Слой_1" data-name="Слой 1" xmlns="http://www.w3.org/2000/svg" viewBox="0 0 54 37.89"><defs><style>.cls-1{fill:#51c469;}.cls-2{fill:#3f3faf;}.cls-3{fill:#2f9aea;}</style></defs><title>zkh</title><path d="M34.74,30.47c0-.16,0-.25,0-.34q0-1.42,0-2.84c0-.35,0-.35.36-.35h2.71c.25,0,.32.08.32.32q0,5.05,0,10.11c0,.31,0,.34-.34.34H35.08c-.32,0-.34,0-.34-.36,0-.16,0-.32,0-.56l-.26.25a3.06,3.06,0,0,1-4.14.09A4.22,4.22,0,0,1,29,34.06a5.29,5.29,0,0,1,.58-2.85,3.2,3.2,0,0,1,3.8-1.65,5.32,5.32,0,0,1,1.16.68A2.13,2.13,0,0,1,34.74,30.47Zm-2.5,3.17A1.28,1.28,0,0,0,33.45,35a1.39,1.39,0,0,0,.18-2.77A1.26,1.26,0,0,0,32.24,33.64Z"/><path d="M24,36.77c-.31.25-.55.47-.82.66a2.88,2.88,0,0,1-3.95-.78,3.21,3.21,0,0,1-.4-1.57c0-1.71,0-3.41,0-5.12,0-.22.06-.32.31-.32q1.39,0,2.79,0c.24,0,.31.09.31.32q0,1.92,0,3.84a1.61,1.61,0,0,0,.07.5.83.83,0,0,0,1,.58.9.9,0,0,0,.74-.81c0-.15,0-.31,0-.46q0-1.79,0-3.58c0-.37,0-.38.37-.38.9,0,1.81,0,2.71,0,.25,0,.32.09.32.33q0,3.71,0,7.42c0,.24-.09.31-.31.31H24.31c-.25,0-.34-.09-.32-.33S24,37,24,36.77Z"/><path d="M49.56,37.88a4.52,4.52,0,0,1-3.39-1.27,4.12,4.12,0,0,1,.92-6.55,4.71,4.71,0,0,1,5.37.37A4.12,4.12,0,0,1,53,36.3,4.62,4.62,0,0,1,49.56,37.88Zm-.12-5.6a1.25,1.25,0,0,0-1.23,1.38A1.27,1.27,0,0,0,49.49,35a1.3,1.3,0,0,0,1.26-1.39A1.33,1.33,0,0,0,49.44,32.28Z"/><path d="M6.42,37.89a7.3,7.3,0,0,1-3.76-1c-.33-.19-.33-.2-.14-.52.28-.49.58-1,.85-1.46.09-.16.17-.17.32-.08a5.25,5.25,0,0,0,2.72.77c.17,0,.41.07.45-.17s-.21-.3-.39-.36c-.51-.15-1-.28-1.52-.44a6.94,6.94,0,0,1-1.06-.43A2.18,2.18,0,0,1,2.7,31.81a2.42,2.42,0,0,1,1.67-2,5.47,5.47,0,0,1,1.44-.3,6.84,6.84,0,0,1,3.3.56l.35.16c.4.2.39.2.18.58s-.49.92-.73,1.38c-.16.3-.15.29-.45.16a5.28,5.28,0,0,0-2.26-.59c-.15,0-.37-.06-.41.16s.17.28.32.33c.63.19,1.27.34,1.89.56a4.75,4.75,0,0,1,1.15.59,2.11,2.11,0,0,1,.8,2.09,2.65,2.65,0,0,1-2.5,2.37C7.11,37.86,6.76,37.87,6.42,37.89Z"/><path d="M17.31,34.79c0,.12,0,.2,0,.29,0,.67,0,1.33,0,2a.4.4,0,0,1-.3.44,5.06,5.06,0,0,1-3.29.12,2.18,2.18,0,0,1-1.58-2.08c-.07-1,0-1.93-.06-2.89,0-.37,0-.37-.37-.37-.63,0-.55,0-.56-.56s0-1.18,0-1.77c0-.24.08-.33.31-.3h0c.67,0,.58.1.59-.61,0-.37,0-.73,0-1.1,0-.2.06-.29.28-.29h2.84c.21,0,.28.08.28.29,0,.49,0,1,0,1.46,0,.19.06.26.25.26h1.31c.2,0,.29.06.29.28q0,1,0,2.07c0,.22-.09.28-.29.28H15.81c-.21,0-.31.06-.3.29,0,.56,0,1.13,0,1.69s.23.74.74.74a3,3,0,0,0,.53,0C16.94,34.91,17.1,34.85,17.31,34.79Z"/><path d="M40,33.68q0-1.84,0-3.69c0-.34,0-.34.34-.34H43c.23,0,.31.08.31.31q0,3.71,0,7.42c0,.24-.09.33-.33.33H40.26c-.23,0-.31-.08-.31-.31C40,36.15,40,34.92,40,33.68Z"/><path class="cls-1" d="M30.88,0l.25.22,2.34,2.33a.67.67,0,0,1,.21.52c0,2.14,0,4.28,0,6.42a5.26,5.26,0,0,1-1.57,3.8c-.3.3-.29.23,0,.54a5.3,5.3,0,0,1,1.57,3.78q0,3.47,0,6.94c0,.35,0,.36-.36.36-.73,0-1.45,0-2.18,0a.62.62,0,0,1-.39-.13c-.84-.82-1.66-1.65-2.48-2.47a1.53,1.53,0,0,1-.1-.14l.3,0h2.1c.22,0,.3-.07.3-.3,0-2.43,0-4.86,0-7.29a4.75,4.75,0,0,0-1.47-3.34c-.38-.38-.37-.38,0-.77a5.15,5.15,0,0,0,1.49-3.6c0-2.15,0-4.3,0-6.45C30.86.28,30.87.18,30.88,0Z"/><path class="cls-1" d="M19.85,22.13h2.41c.34,0,.34,0,.34-.35q0-4.58,0-9.16c0-.42,0-.42.42-.43h2.53a2.73,2.73,0,0,1,2.58,2.42c0,.31,0,.35-.33.35H25.73c-.35,0-.35,0-.35.36q0,4.58,0,9.16c0,.41,0,.41-.41.41-.71,0-1.42,0-2.12,0a.62.62,0,0,1-.39-.13C21.62,24,20.8,23.12,20,22.3Z"/><path class="cls-1" d="M22.63,0l.22.2,2.34,2.33a.61.61,0,0,1,.2.47c0,2,0,4,0,6.06,0,.33,0,.34-.35.34H22.91c-.24,0-.31-.08-.31-.32q0-4.41,0-8.83C22.6.23,22.62.16,22.63,0Z"/><path class="cls-2" d="M48.07,22.13h.7c.57,0,1.14,0,1.71,0,.23,0,.31-.08.29-.3s0-.15,0-.23q0-10.58,0-21.17c0-.12,0-.25,0-.44L51,.22,53.4,2.57A.61.61,0,0,1,53.6,3q0,10.76,0,21.52c0,.33,0,.34-.35.34H51a.58.58,0,0,1-.37-.12c-.84-.82-1.67-1.66-2.5-2.49A1.42,1.42,0,0,1,48.07,22.13Z"/><path class="cls-2" d="M39.76,22.13h.62c.61,0,1.21,0,1.82,0,.25,0,.32-.08.32-.32q0-4.59,0-9.19c0-.43,0-.43.42-.43h4.78c.33,0,.34,0,.34.35q0,1,0,2.07c0,.36,0,.36-.38.36-.69,0-1.38,0-2.07,0-.25,0-.32.09-.32.33q0,4.59,0,9.19c0,.43,0,.43-.42.43-.71,0-1.42,0-2.12,0a.61.61,0,0,1-.39-.14c-.83-.81-1.65-1.63-2.47-2.46C39.87,22.28,39.84,22.24,39.76,22.13Z"/><path class="cls-2" d="M42.54,0l.23.2L45.1,2.56a.64.64,0,0,1,.2.5c0,2,0,4,0,6,0,.34,0,.35-.34.35H42.81c-.22,0-.3-.08-.3-.3q0-4.44,0-8.88C42.52.21,42.53.16,42.54,0Z"/><path class="cls-3" d="M11,0l.24.2C12,1,12.83,1.79,13.62,2.57a.4.4,0,0,1,.1.5q-1.78,4.7-3.54,9.41L7.67,19.13c-.06.15-.12.25-.31.25H4l-.18,0Z"/><path class="cls-3" d="M11,19.35l.26.23c.78.78,1.56,1.55,2.33,2.34a.76.76,0,0,1,.2.46c0,.74,0,1.48,0,2.23,0,.22-.07.3-.29.3H3a.53.53,0,0,1-.34-.12C1.77,24,.94,23.12.11,22.29A1.34,1.34,0,0,1,0,22.13H10.55c.44,0,.44,0,.44-.43q0-1,0-2C11,19.63,11,19.53,11,19.35Z"/><path class="cls-3" d="M0,2.8H7.23L7,3.45c-.23.61-.47,1.23-.7,1.84a.35.35,0,0,1-.37.27H3a.54.54,0,0,1-.34-.12C1.77,4.61.94,3.77.11,2.94A1.09,1.09,0,0,1,0,2.8Z"/><path d="M41.63,29.1H40.2c-.21,0-.31-.07-.3-.29,0-.53,0-1.06,0-1.58,0-.2.05-.29.27-.29h3c.2,0,.27.08.27.27,0,.54,0,1.07,0,1.61,0,.21-.09.29-.29.28Z"/></svg>